<svg width="40" height="32" viewBox="0 0 40 32" fill="none" xmlns="http://www.w3.org/2000/svg">
<path fill-rule="evenodd" clip-rule="evenodd" d="M27.3995 6.20153C27.7035 5.97353 28.1075 5.93653 28.4475 6.10553C28.7489 6.25664 28.9507 6.54682 28.9918 6.87562L28.9995 7.00053V16.0005C28.9995 19.1571 26.3217 21.8791 23.9612 23.6652L23.5231 23.989L23.0968 24.2902L22.6867 24.568L22.2972 24.8216L21.7612 25.1551L21.2962 25.4303L20.9171 25.6445L20.4495 25.8935C20.3085 25.9645 20.1545 26.0005 19.9995 26.0005C19.884 26.0005 19.7685 25.9803 19.6585 25.9402L19.5244 25.8803L19.2807 25.7522L18.967 25.58L18.5576 25.3452L18.2387 25.1551L17.8883 24.9391L17.5108 24.6978L17.1104 24.432C17.042 24.3857 16.9728 24.3385 16.903 24.2902L16.4767 23.989L16.0385 23.6652C13.7515 21.9349 11.1666 19.3263 11.0073 16.2952L10.9995 16.0005V7.00053C10.9995 6.62153 11.2135 6.27553 11.5525 6.10553C11.8539 5.95531 12.2074 5.96785 12.4957 6.13263L12.6005 6.20153L15.9995 8.75053L19.3995 6.20153C19.7199 5.96033 20.1481 5.93621 20.49 6.12917L20.6005 6.20153L23.9995 8.75053L27.3995 6.20153ZM19.9995 8.25053L16.6005 10.8005C16.2801 11.0399 15.852 11.0639 15.5101 10.8724L15.3995 10.8005L12.9995 9.00053V16.0005C12.9995 18.2511 15.1337 20.4689 17.2313 22.0631L17.6641 22.3838C17.7359 22.4357 17.8074 22.4869 17.8787 22.5372L18.3019 22.8291L18.7134 23.1002L19.1089 23.3495L19.6627 23.68L19.9995 23.8695L20.3362 23.6795L20.6996 23.4647L21.0854 23.2263L21.4893 22.9654L21.9072 22.6833L22.3346 22.381L22.7673 22.0598C24.7926 20.5186 26.8524 18.3973 26.992 16.2326L26.9995 16.0005V9.00053L24.6005 10.8005C24.2801 11.0399 23.852 11.0639 23.5101 10.8724L23.3995 10.8005L19.9995 8.25053ZM24.293 12.2943L25.707 13.7083L19 20.4143L15.293 16.7083L16.707 15.2943L19 17.5863L24.293 12.2943Z" fill="#222529"/>
</svg>