<svg width="40" height="33" viewBox="0 0 40 33" fill="none" xmlns="http://www.w3.org/2000/svg">
<path d="M18.249 9.49878C18.4479 9.49878 18.6386 9.57785 18.7793 9.71851C18.9199 9.85916 18.999 10.0499 18.999 10.2488V16.9988H25.749C26.1632 16.9988 26.499 17.3346 26.499 17.7488C26.499 19.3804 26.0148 20.9751 25.1084 22.3318C24.2018 23.6885 22.9137 24.7464 21.4062 25.3708C19.8988 25.9953 18.2399 26.1589 16.6396 25.8406C15.0393 25.5222 13.5688 24.7365 12.415 23.5828C11.2612 22.429 10.4755 20.9585 10.1572 19.3582C9.8389 17.7579 10.0025 16.099 10.6269 14.5916C11.2513 13.0841 12.3093 11.7959 13.666 10.8894C15.0226 9.98297 16.6174 9.49878 18.249 9.49878ZM17.499 11.0408C16.4293 11.1604 15.3999 11.5345 14.499 12.1365C13.3889 12.8782 12.5235 13.9324 12.0127 15.1658C11.5019 16.399 11.3685 17.756 11.6289 19.0652C11.8893 20.3746 12.5315 21.5782 13.4755 22.5222C14.4195 23.4662 15.6232 24.1084 16.9326 24.3689C18.2418 24.6292 19.5987 24.4959 20.832 23.9851C22.0654 23.4742 23.1196 22.6088 23.8613 21.4988C24.4633 20.5978 24.8374 19.5684 24.957 18.4988H18.249C17.8348 18.4988 17.499 18.163 17.499 17.7488V11.0408ZM21.249 6.49878C23.437 6.49878 25.5358 7.36762 27.083 8.91479C28.6301 10.462 29.499 12.5607 29.499 14.7488C29.499 14.9477 29.4199 15.1384 29.2793 15.2791C29.1386 15.4197 28.9479 15.4988 28.749 15.4988H21.249C20.8348 15.4988 20.499 15.163 20.499 14.7488V7.24878C20.499 7.04987 20.5781 6.85916 20.7187 6.71851C20.8594 6.57785 21.0501 6.49878 21.249 6.49878ZM21.999 13.9988H27.957C27.7877 12.4845 27.1102 11.0632 26.0224 9.97534C24.9346 8.88753 23.5132 8.21003 21.999 8.04077V13.9988Z" fill="#222529"/>
</svg>