<svg width="44" height="44" viewBox="0 0 44 44" fill="none" xmlns="http://www.w3.org/2000/svg">
<rect width="44" height="44" rx="6" fill="#004FE8" fill-opacity="0.08"/>
<path d="M20.249 14.9988C20.4479 14.9988 20.6386 15.0779 20.7793 15.2185C20.9199 15.3592 20.999 15.5499 20.999 15.7488V22.4988H27.749C28.1632 22.4988 28.499 22.8346 28.499 23.2488C28.499 24.8804 28.0148 26.4751 27.1084 27.8318C26.2019 29.1885 24.9137 30.2464 23.4062 30.8708C21.8988 31.4953 20.2399 31.6589 18.6396 31.3406C17.0393 31.0222 15.5688 30.2365 14.415 29.0828C13.2612 27.929 12.4755 26.4585 12.1572 24.8582C11.8389 23.2579 12.0025 21.599 12.6269 20.0916C13.2514 18.5841 14.3093 17.2959 15.666 16.3894C17.0227 15.483 18.6174 14.9988 20.249 14.9988ZM19.499 16.5408C18.4293 16.6604 17.4 17.0345 16.499 17.6365C15.389 18.3782 14.5236 19.4324 14.0127 20.6658C13.5019 21.899 13.3686 23.256 13.6289 24.5652C13.8893 25.8746 14.5316 27.0782 15.4756 28.0222C16.4196 28.9662 17.6232 29.6084 18.9326 29.8689C20.2418 30.1292 21.5988 29.9959 22.832 29.4851C24.0654 28.9742 25.1196 28.1088 25.8613 26.9988C26.4633 26.0978 26.8374 25.0684 26.957 23.9988H20.249C19.8348 23.9988 19.499 23.663 19.499 23.2488V16.5408ZM23.249 11.9988C25.437 11.9988 27.5358 12.8676 29.083 14.4148C30.6302 15.962 31.499 18.0607 31.499 20.2488C31.499 20.4477 31.4199 20.6384 31.2793 20.7791C31.1386 20.9197 30.9479 20.9988 30.749 20.9988H23.249C22.8348 20.9988 22.499 20.663 22.499 20.2488V12.7488C22.499 12.5499 22.5781 12.3592 22.7187 12.2185C22.8594 12.0779 23.0501 11.9988 23.249 11.9988ZM23.999 19.4988H29.957C29.7878 17.9845 29.1103 16.5632 28.0224 15.4753C26.9346 14.3875 25.5133 13.71 23.999 13.5408V19.4988Z" fill="#004FE8"/>
</svg>