
<svg width="44" height="33" viewBox="0 0 44 33" fill="none" xmlns="http://www.w3.org/2000/svg">
<path fill-rule="evenodd" clip-rule="evenodd" d="M12.25 7.5C12.25 7.08579 12.5858 6.75 13 6.75H25C25.4142 6.75 25.75 7.08579 25.75 7.5C25.75 7.91421 25.4142 8.25 25 8.25V11.25H31C31.4142 11.25 31.75 11.5858 31.75 12C31.75 12.4142 31.4142 12.75 31 12.75V24.75H31.75C32.1642 24.75 32.5 25.0858 32.5 25.5C32.5 25.9142 32.1642 26.25 31.75 26.25H12.25C11.8358 26.25 11.5 25.9142 11.5 25.5C11.5 25.0858 11.8358 24.75 12.25 24.75H13V8.25C12.5858 8.25 12.25 7.91421 12.25 7.5ZM14.5 8.25V24.75H16V22.125C16 21.0898 16.8398 20.25 17.875 20.25H20.125C21.1602 20.25 22 21.0898 22 22.125V24.75H23.5V8.25H14.5ZM25 12.75V24.75H29.5V12.75H25ZM20.5 24.75V22.125C20.5 21.9182 20.3318 21.75 20.125 21.75H17.875C17.6682 21.75 17.5 21.9182 17.5 22.125V24.75H20.5ZM16 11.25C16 10.8358 16.3358 10.5 16.75 10.5H17.5C17.9142 10.5 18.25 10.8358 18.25 11.25C18.25 11.6642 17.9142 12 17.5 12H16.75C16.3358 12 16 11.6642 16 11.25ZM19.75 11.25C19.75 10.8358 20.0858 10.5 20.5 10.5H21.25C21.6642 10.5 22 10.8358 22 11.25C22 11.6642 21.6642 12 21.25 12H20.5C20.0858 12 19.75 11.6642 19.75 11.25ZM16 14.25C16 13.8358 16.3358 13.5 16.75 13.5H17.5C17.9142 13.5 18.25 13.8358 18.25 14.25C18.25 14.6642 17.9142 15 17.5 15H16.75C16.3358 15 16 14.6642 16 14.25ZM19.75 14.25C19.75 13.8358 20.0858 13.5 20.5 13.5H21.25C21.6642 13.5 22 13.8358 22 14.25C22 14.6642 21.6642 15 21.25 15H20.5C20.0858 15 19.75 14.6642 19.75 14.25ZM26.5 15.75C26.5 15.3358 26.8358 15 27.25 15H27.258C27.6722 15 28.008 15.3358 28.008 15.75V15.758C28.008 16.1722 27.6722 16.508 27.258 16.508H27.25C26.8358 16.508 26.5 16.1722 26.5 15.758V15.75ZM16 17.25C16 16.8358 16.3358 16.5 16.75 16.5H17.5C17.9142 16.5 18.25 16.8358 18.25 17.25C18.25 17.6642 17.9142 18 17.5 18H16.75C16.3358 18 16 17.6642 16 17.25ZM19.75 17.25C19.75 16.8358 20.0858 16.5 20.5 16.5H21.25C21.6642 16.5 22 16.8358 22 17.25C22 17.6642 21.6642 18 21.25 18H20.5C20.0858 18 19.75 17.6642 19.75 17.25ZM26.5 18.75C26.5 18.3358 26.8358 18 27.25 18H27.258C27.6722 18 28.008 18.3358 28.008 18.75V18.758C28.008 19.1722 27.6722 19.508 27.258 19.508H27.25C26.8358 19.508 26.5 19.1722 26.5 18.758V18.75ZM26.5 21.75C26.5 21.3358 26.8358 21 27.25 21H27.258C27.6722 21 28.008 21.3358 28.008 21.75V21.758C28.008 22.1722 27.6722 22.508 27.258 22.508H27.25C26.8358 22.508 26.5 22.1722 26.5 21.758V21.75Z" fill="#222529"/>
</svg>