<svg width="40" height="33" viewBox="0 0 40 33" fill="none" xmlns="http://www.w3.org/2000/svg">
<path d="M22 15.5H26V13.5H22V15.5Z" fill="#222529"/>
<path d="M26 19.5H22V17.5H26V19.5Z" fill="#222529"/>
<path d="M16 23.5H26V21.5H16V23.5Z" fill="#222529"/>
<path d="M19 20.5H17V19.5H15V17.5H18.5C18.776 17.5 19 17.276 19 17C19 16.724 18.776 16.5 18.5 16.5H17.5C16.122 16.5 15 15.378 15 14C15 12.793 15.86 11.783 17 11.551V10.5H19V11.5H21V13.5H17.5C17.224 13.5 17 13.724 17 14C17 14.276 17.224 14.5 17.5 14.5H18.5C19.878 14.5 21 15.622 21 17C21 18.207 20.14 19.217 19 19.449V20.5Z" fill="#222529"/>
<path fill-rule="evenodd" clip-rule="evenodd" d="M28.707 11.793L23.707 6.793C23.52 6.605 23.265 6.5 23 6.5H12C11.448 6.5 11 6.948 11 7.5V25.5C11 26.053 11.448 26.5 12 26.5H28C28.552 26.5 29 26.053 29 25.5V12.5C29 12.235 28.895 11.98 28.707 11.793ZM27 24.5H13V8.5H22.586L27 12.915V24.5Z" fill="#222529"/>
</svg>
