<svg width="45" height="44" viewBox="0 0 45 44" fill="none" xmlns="http://www.w3.org/2000/svg">
<rect x="0.666504" width="44" height="44" rx="6" fill="#004FE8" fill-opacity="0.08"/>
<path fill-rule="evenodd" clip-rule="evenodd" d="M22.6665 13.75C20.4785 13.75 18.38 14.6192 16.8329 16.1664C15.2857 17.7135 14.4165 19.812 14.4165 22C14.4165 23.0834 14.6299 24.1562 15.0445 25.1571C15.4591 26.1581 16.0668 27.0675 16.8329 27.8336C17.599 28.5997 18.5084 29.2074 19.5094 29.622C20.5103 30.0366 21.5831 30.25 22.6665 30.25C23.7499 30.25 24.8227 30.0366 25.8236 29.622C26.8246 29.2074 27.734 28.5997 28.5001 27.8336C29.2662 27.0675 29.8739 26.1581 30.2885 25.1571C30.7031 24.1562 30.9165 23.0834 30.9165 22C30.9165 19.812 30.0473 17.7135 28.5001 16.1664C26.953 14.6192 24.8545 13.75 22.6665 13.75ZM15.7722 15.1057C17.6007 13.2772 20.0806 12.25 22.6665 12.25C25.2524 12.25 27.7323 13.2772 29.5608 15.1057C31.3893 16.9342 32.4165 19.4141 32.4165 22C32.4165 23.2804 32.1643 24.5482 31.6743 25.7312C31.1843 26.9141 30.4662 27.9889 29.5608 28.8943C28.6554 29.7997 27.5806 30.5178 26.3977 31.0078C25.2147 31.4978 23.9469 31.75 22.6665 31.75C21.3861 31.75 20.1183 31.4978 18.9353 31.0078C17.7524 30.5178 16.6776 29.7997 15.7722 28.8943C14.8668 27.9889 14.1487 26.9141 13.6587 25.7312C13.1687 24.5482 12.9165 23.2804 12.9165 22C12.9165 19.4141 13.9437 16.9342 15.7722 15.1057ZM22.6665 15.25C23.0807 15.25 23.4165 15.5858 23.4165 16V21.25H27.1665C27.5807 21.25 27.9165 21.5858 27.9165 22C27.9165 22.4142 27.5807 22.75 27.1665 22.75H22.6665C22.2523 22.75 21.9165 22.4142 21.9165 22V16C21.9165 15.5858 22.2523 15.25 22.6665 15.25Z" fill="#004FE8"/>
</svg>