<svg width="44" height="44" viewBox="0 0 44 44" fill="none" xmlns="http://www.w3.org/2000/svg">
<rect width="44" height="44" rx="6" fill="#004FE8" fill-opacity="0.08"/>
<path d="M19.9347 23V20.5091H19.2585V19.6204H19.9347V19.0555C19.9339 18.7188 20.005 18.3857 20.1433 18.0786C20.2855 17.7629 20.5152 17.4946 20.8053 17.3055C21.1609 17.0872 21.5738 16.9808 21.9906 17C22.3537 16.9876 22.7144 17.0638 23.0414 17.2222C23.3033 17.3561 23.5398 17.5346 23.7403 17.7499L22.9252 18.6386C22.8197 18.5264 22.7001 18.4284 22.5693 18.347C22.4271 18.2661 22.2652 18.2261 22.1017 18.2314C21.9839 18.2203 21.8653 18.2427 21.7596 18.2959C21.654 18.3492 21.5654 18.4311 21.5042 18.5324C21.3889 18.7371 21.3299 18.9686 21.3331 19.2035V19.6204H22.9814V20.5091H21.3331V21.7686H23.7681V23H19.9347Z" fill="#004FE8"/>
<path d="M31.3076 27.6372L29.8637 25.0833C29.8661 25.055 29.8803 25.0306 29.8803 25.0018V15C29.8795 14.735 29.7739 14.4811 29.5865 14.2938C29.3992 14.1064 29.1453 14.0008 28.8803 14H14.8442C14.5793 14.0008 14.3254 14.1064 14.138 14.2938C13.9506 14.4811 13.845 14.735 13.8442 15V25.0018C13.8442 25.0093 13.8484 25.0156 13.8486 25.0231L12.2705 27.6265C12.1107 27.8619 12.018 28.1364 12.0024 28.4205C11.9867 28.7047 12.0487 28.9877 12.1816 29.2393C12.3278 29.4835 12.5377 29.6833 12.7888 29.8173C13.0399 29.9513 13.3227 30.0145 13.6069 30H29.9292C30.2133 30.0205 30.4975 29.9609 30.7495 29.828C31.0015 29.6951 31.2112 29.4942 31.3547 29.2482C31.4983 29.0021 31.57 28.7207 31.5616 28.4359C31.5533 28.1512 31.4653 27.8745 31.3076 27.6372ZM15.8442 16H27.8803V24.0018H15.8442V16ZM24.4598 28L23.8771 27.0012H19.7963L19.2136 28H14.3828L15.594 26.0018H28.0852L29.2148 28H24.4598Z" fill="#004FE8"/>
</svg>
