<svg width="45" height="44" viewBox="0 0 45 44" fill="none" xmlns="http://www.w3.org/2000/svg">
<rect x="0.5" width="44" height="44" rx="6" fill="#004FE8" fill-opacity="0.08"/>
<path fill-rule="evenodd" clip-rule="evenodd" d="M18.25 14C18.4489 14 18.6397 14.079 18.7803 14.2197C18.921 14.3603 19 14.5511 19 14.75V16H26V14.75C26 14.5511 26.079 14.3603 26.2197 14.2197C26.3603 14.079 26.5511 14 26.75 14C26.9489 14 27.1397 14.079 27.2803 14.2197C27.421 14.3603 27.5 14.5511 27.5 14.75V16H27.75C28.4793 16 29.1788 16.2897 29.6945 16.8055C30.2103 17.3212 30.5 18.0207 30.5 18.75V27.25C30.5 27.9793 30.2103 28.6788 29.6945 29.1945C29.1788 29.7103 28.4793 30 27.75 30H17.25C16.5207 30 15.8212 29.7103 15.3055 29.1945C14.7897 28.6788 14.5 27.9793 14.5 27.25V18.75C14.5 18.0207 14.7897 17.3212 15.3055 16.8055C15.8212 16.2897 16.5207 16 17.25 16H17.5V14.75C17.5 14.5511 17.579 14.3603 17.7197 14.2197C17.8603 14.079 18.0511 14 18.25 14ZM17.25 19.5C16.56 19.5 16 20.06 16 20.75V27.25C16 27.94 16.56 28.5 17.25 28.5H27.75C28.44 28.5 29 27.94 29 27.25V20.75C29 20.06 28.44 19.5 27.75 19.5H17.25Z" fill="#004FE8"/>
</svg>
