<svg width="40" height="32" viewBox="0 0 40 32" fill="none" xmlns="http://www.w3.org/2000/svg">
<path fill-rule="evenodd" clip-rule="evenodd" d="M20 7.75C17.812 7.75 15.7135 8.61919 14.1664 10.1664C12.6192 11.7135 11.75 13.812 11.75 16C11.75 17.0834 11.9634 18.1562 12.378 19.1571C12.7926 20.1581 13.4003 21.0675 14.1664 21.8336C14.9325 22.5997 15.8419 23.2074 16.8429 23.622C17.8438 24.0366 18.9166 24.25 20 24.25C21.0834 24.25 22.1562 24.0366 23.1571 23.622C24.1581 23.2074 25.0675 22.5997 25.8336 21.8336C26.5997 21.0675 27.2074 20.1581 27.622 19.1571C28.0366 18.1562 28.25 17.0834 28.25 16C28.25 13.812 27.3808 11.7135 25.8336 10.1664C24.2865 8.61919 22.188 7.75 20 7.75ZM13.1057 9.10571C14.9342 7.27723 17.4141 6.25 20 6.25C22.5859 6.25 25.0658 7.27723 26.8943 9.10571C28.7228 10.9342 29.75 13.4141 29.75 16C29.75 17.2804 29.4978 18.5482 29.0078 19.7312C28.5178 20.9141 27.7997 21.9889 26.8943 22.8943C25.9889 23.7997 24.9141 24.5178 23.7312 25.0078C22.5482 25.4978 21.2804 25.75 20 25.75C18.7196 25.75 17.4518 25.4978 16.2688 25.0078C15.0859 24.5178 14.0111 23.7997 13.1057 22.8943C12.2003 21.9889 11.4822 20.9141 10.9922 19.7312C10.5022 18.5482 10.25 17.2804 10.25 16C10.25 13.4141 11.2772 10.9342 13.1057 9.10571Z" fill="#222529"/>
<path d="M18.9473 18.0717V17.9773C18.9539 17.3608 19.0152 16.8702 19.1312 16.5057C19.2505 16.1411 19.4196 15.8461 19.6383 15.6207C19.8571 15.3953 20.1206 15.1898 20.4288 15.0042C20.6277 14.8783 20.8066 14.7374 20.9657 14.5817C21.1248 14.4259 21.2508 14.2469 21.3436 14.0447C21.4364 13.8425 21.4828 13.6188 21.4828 13.3736C21.4828 13.0786 21.4132 12.8234 21.274 12.6079C21.1348 12.3925 20.9492 12.2268 20.7172 12.1108C20.4885 11.9915 20.2333 11.9318 19.9515 11.9318C19.6963 11.9318 19.4527 11.9848 19.2207 12.0909C18.9887 12.1969 18.7965 12.3627 18.644 12.588C18.4915 12.8101 18.4037 13.0968 18.3805 13.4481H16.8691C16.8923 12.8515 17.0431 12.3478 17.3216 11.9368C17.6 11.5225 17.9679 11.2093 18.4252 10.9971C18.8859 10.785 19.3947 10.679 19.9515 10.679C20.5614 10.679 21.095 10.7933 21.5524 11.022C22.0098 11.2474 22.3644 11.5639 22.6163 11.9716C22.8715 12.3759 22.9991 12.8482 22.9991 13.3885C22.9991 13.7597 22.9411 14.0944 22.8251 14.3927C22.7091 14.6877 22.5434 14.9512 22.3279 15.1832C22.1158 15.4152 21.8606 15.6207 21.5623 15.7997C21.2806 15.9754 21.0519 16.1576 20.8762 16.3466C20.7039 16.5355 20.5779 16.7592 20.4984 17.0177C20.4189 17.2763 20.3758 17.5961 20.3691 17.9773V18.0717H18.9473ZM19.698 21.0944C19.4262 21.0944 19.1925 20.9983 18.997 20.8061C18.8014 20.6105 18.7037 20.3752 18.7037 20.1001C18.7037 19.8283 18.8014 19.5963 18.997 19.4041C19.1925 19.2085 19.4262 19.1108 19.698 19.1108C19.9664 19.1108 20.1984 19.2085 20.394 19.4041C20.5929 19.5963 20.6923 19.8283 20.6923 20.1001C20.6923 20.2824 20.6459 20.4498 20.5531 20.6023C20.4636 20.7514 20.3443 20.8707 20.1951 20.9602C20.046 21.0497 19.8803 21.0944 19.698 21.0944Z" fill="#222529"/>
</svg>