<svg width="100" height="32" viewBox="0 0 100 32" fill="none" xmlns="http://www.w3.org/2000/svg">
<path d="M4.2307 0.84067V1.34396H6.0877V10.8618C6.0877 13.733 5.26215 14.5371 3.45663 14.5371C2.32221 14.5371 2.11439 13.681 2.11439 13.278C2.11439 12.2212 2.06292 11.6158 1.08294 11.6158C0.102955 11.6158 0 12.5722 0 12.875C0 14.1842 0.619637 15.1908 3.25071 15.1908C6.44995 15.1908 8.15253 14.1341 8.15253 10.6594V1.29381H10.061V0.790527L4.2307 0.84067ZM10.1125 13.2278C9.90658 13.4284 9.75214 13.7311 9.75214 14.0338C9.75214 14.3365 9.8551 14.5872 10.1125 14.8398C10.3184 15.0404 10.6292 15.1425 10.938 15.1425C11.2469 15.1425 11.5577 15.0422 11.7636 14.8398C11.9695 14.6392 12.1239 14.3867 12.1239 14.0338C12.1239 13.7311 12.021 13.4302 11.7636 13.2278C11.5577 13.0272 11.2469 12.9251 10.938 12.9251C10.5777 12.875 10.3184 12.9752 10.1125 13.2278ZM23.1668 13.2278C22.9609 13.4284 22.858 13.7311 22.858 14.0338C22.858 14.3365 22.9609 14.5872 23.1668 14.8398C23.4242 15.0404 23.6835 15.1425 23.9924 15.1425C24.3012 15.1425 24.612 15.0422 24.8179 14.8398C25.0238 14.6392 25.1783 14.3867 25.1783 14.0338C25.1783 13.7311 25.0753 13.4302 24.8179 13.2278C24.612 13.0272 24.3012 12.9251 23.9924 12.9251C23.632 12.875 23.3727 12.9752 23.1668 13.2278ZM14.1373 0.84067V1.34396H15.8398V12.2212C15.8398 13.0774 15.7884 13.278 15.6854 13.5305C15.5825 13.7831 15.3251 14.0338 15.0143 14.1842C14.7569 14.2845 14.3432 14.3347 13.8284 14.3848V14.838H20.021V14.3848C19.5043 14.3848 19.0925 14.3347 18.8351 14.2344C18.4747 14.084 18.2154 13.8815 18.1125 13.5807C18.0095 13.3281 17.9581 13.1275 17.9581 12.6744V8.94895H19.5062C23.9428 8.94895 25.2336 7.23667 25.2336 4.87067C25.2336 2.50467 24.4576 0.84067 19.9676 0.84067H14.1373ZM17.9047 1.34396H18.9876C22.4442 1.34396 23.1668 2.70338 23.1668 4.9691C23.1668 7.23481 21.8246 8.34352 19.0906 8.34352H17.9047V1.34396ZM41.2259 0.84067C41.1744 0.991099 36.8408 11.4654 36.8408 11.4654L36.7378 11.5155L36.6349 11.4654C36.6349 11.4654 32.0419 0.991099 31.9905 0.84067H27.9142V1.29381H29.6683V12.069L29.6168 13.0254C29.5653 13.278 29.5138 13.5287 29.3594 13.6791C29.205 13.8797 28.999 14.032 28.6883 14.1322C28.4824 14.1824 28.2231 14.2325 27.8627 14.2325V14.6857H31.8875V14.2325C31.5272 14.2325 31.3708 14.1824 31.2164 14.1322C30.9075 14.032 30.6997 13.8797 30.5453 13.6791C30.3909 13.4785 30.3394 13.2761 30.2879 12.9734L30.2364 12.017V2.75353H30.4938C30.4938 2.75353 35.7045 14.5872 35.756 14.7377H36.1678L41.0696 2.90396H41.1725V12.5221C41.1725 12.9251 41.1211 13.2278 41.0696 13.4785C40.9666 13.7812 40.7607 13.9818 40.45 14.1322C40.244 14.2325 39.8818 14.2827 39.4185 14.2827V14.7358H45.0429V14.2827C44.5777 14.2827 44.2688 14.1824 44.0114 14.0821C43.7026 13.9317 43.4948 13.6791 43.3918 13.4284C43.2888 13.1777 43.2888 12.875 43.2888 12.472V1.29381H44.7855V0.84067H41.2259ZM46.1792 9.85338C46.1792 14.838 50.1525 15.1407 50.9781 15.1407C52.6806 15.1407 55.8799 14.1341 55.8799 9.7531C55.8799 6.37867 53.8151 4.51595 51.0296 4.51595C48.0877 4.5661 46.1792 6.47895 46.1792 9.85338ZM48.3985 9.90353C48.3985 7.18467 48.5529 5.11953 50.9781 5.11953C53.6092 5.11953 53.6091 7.23481 53.6091 9.7011C53.6091 13.2761 52.9895 14.4851 50.9781 14.4851C48.7588 14.5352 48.3985 13.4284 48.3985 9.90353ZM60.8846 6.78167H60.7302C60.7302 6.78167 60.4728 5.27181 60.3699 4.81867H56.9133V5.32195H58.7703V12.2212C58.7703 12.927 58.6673 13.3801 58.5644 13.681C58.3584 14.0338 57.9447 14.1842 57.2221 14.1842H56.9133V14.7878H62.7436V14.1842H62.4347C61.6606 14.1842 61.3518 14.0338 61.1439 13.681C60.938 13.3782 60.8866 12.9251 60.8866 12.2212V8.64624C60.8866 7.43724 61.8151 6.07781 62.9514 6.07781C64.0877 6.07781 64.0858 7.84024 65.428 7.13453C66.1506 6.73153 66.0477 4.76853 63.7769 4.76853C61.9199 4.71838 61.4032 5.72496 60.8885 6.78353M79.0505 5.32381C78.3794 5.8271 78.122 6.28024 78.122 6.93581C78.122 7.23853 78.225 7.4391 78.3794 7.58953C78.5338 7.73995 78.7398 7.7901 78.999 7.7901C79.5672 7.7901 79.8761 7.48738 80.0305 6.78353C80.1335 6.2301 80.2364 5.92738 80.4957 5.62467C80.8046 5.32196 81.2698 5.17153 81.8894 5.17153C82.612 5.17153 83.1287 5.3721 83.4376 5.72495C83.6949 6.07781 83.8494 6.5811 83.8494 7.18467V8.84681C81.9924 8.99724 77.6053 9.3501 77.7617 12.6242C77.8132 13.8834 79.001 15.0404 80.4957 15.0404C82.1468 15.0404 83.1783 14.1341 83.9009 13.3782C84.0038 14.084 84.6749 14.8881 85.8608 14.8881C87.2031 14.8881 88.0286 14.2344 88.1316 12.6224H87.7712C87.6683 13.3281 87.2545 13.7311 86.8427 13.7311C86.2231 13.7311 86.0172 13.3782 85.9657 12.8248L85.9142 11.5657V7.3871C85.9142 6.48081 85.7598 5.87724 85.2431 5.3721C84.7264 4.81867 83.6949 4.5661 82.1468 4.5661C80.8046 4.5661 79.7216 4.81867 79.0505 5.32195M79.8246 12.2714C79.8246 10.4087 82.4042 9.50238 83.8494 9.50238V12.7245L83.7979 12.8248L83.7464 12.875C82.7664 13.7812 81.9924 14.084 81.4242 14.084C80.0305 13.9837 79.8246 12.8248 79.8246 12.2714ZM92.2078 6.5811H92.0019L91.6416 4.76853H88.4938V5.27181C89.1134 5.27181 90.0934 5.32195 90.0934 5.32195V12.1711C90.0934 12.7245 90.0419 13.0774 89.9905 13.33C89.8875 13.6327 89.6816 13.8332 89.4223 13.9837C89.2164 14.084 88.9056 14.084 88.5453 14.1341V14.7377H93.5501V14.084C93.0334 14.0338 92.7245 13.9335 92.5186 13.681C92.3127 13.4284 92.2097 12.9251 92.2097 12.2714V9.65281C92.2097 8.5441 92.2097 7.48738 92.5701 6.83367C92.9819 6.12795 93.756 5.72495 94.5815 5.72495C95.3556 5.72495 95.7674 5.97753 96.0267 6.43067C96.2326 6.83367 96.387 7.94052 96.387 8.74652V12.0188C96.387 12.5722 96.4385 12.9752 96.387 13.2278C96.3356 13.5305 96.1811 13.7812 95.9752 13.9335C95.8208 14.0338 95.51 14.1341 95.1497 14.1341V14.7878H100V14.1842C99.3804 14.1341 98.9686 13.9837 98.8141 13.7311C98.6082 13.4284 98.4538 12.9752 98.4538 12.2714L98.5052 7.73995C98.5052 7.08624 98.4023 6.53095 98.1449 6.07781C97.8875 5.62467 97.5253 5.27181 97.1134 5.07124C96.6482 4.87067 96.1335 4.71838 95.5653 4.71838C93.5024 4.66824 92.6768 5.87724 92.2116 6.5811M76.061 4.16495C75.7521 4.26524 75.5443 4.51781 75.4414 4.97095C75.3384 5.37395 75.184 5.62467 74.9762 5.67667C74.7684 5.72867 74.511 5.72681 74.2536 5.62653C73.7369 5.17338 72.7569 4.56981 70.9514 4.56981C68.1144 4.56981 66.8751 6.53281 66.8751 8.34724C66.8751 10.4625 67.7007 11.4691 69.5062 11.822C69.6092 11.822 69.6092 11.9724 69.5062 11.9724C67.9581 12.2751 66.5644 12.7282 66.5644 14.188C66.5644 15.0441 67.081 15.5474 67.7502 15.8C68.4728 16.1027 69.5043 16.2531 70.7436 16.2531C71.878 16.2531 72.652 16.3032 73.1687 16.3534C73.7369 16.4035 74.1487 16.554 74.511 16.8065C74.8198 17.0591 75.0276 17.4101 75.0276 17.9152C75.0276 18.569 74.6673 19.1242 73.9447 19.5272C73.2736 19.8801 72.3451 20.0807 71.2107 20.0807C70.2307 20.0807 69.4051 19.9804 68.6826 19.5272C68.1659 19.2245 68.0114 18.5708 68.1659 18.1177C68.2688 17.6645 68.1144 17.1612 67.5462 17.061C67.2374 17.0108 66.8751 17.1612 66.6692 17.464C66.5148 17.7165 66.4633 18.0174 66.4633 18.3702C66.4633 19.5792 67.3918 20.1327 68.1144 20.3332C69.1973 20.636 69.9199 20.7362 70.9514 20.7362C72.2936 20.7362 73.3766 20.5357 74.1506 20.1327C74.9247 19.7297 75.4414 19.2765 75.7502 18.7732C76.0591 18.2198 76.2154 17.6645 76.2154 17.1612C76.2154 16.4555 76.061 15.852 75.7502 15.449C74.7188 14.0895 73.3251 14.24 70.0744 14.1397C68.5262 14.1397 68.2173 13.8871 68.2173 13.3838C68.2173 12.6781 68.7855 12.4274 71.0543 12.0745C73.2736 11.7217 75.3365 10.9658 75.3365 8.2971C75.3365 7.54124 75.1306 6.88753 74.9247 6.43438C75.3899 6.53467 75.8017 6.53467 76.2154 6.38424C76.6806 6.23381 76.938 6.03138 77.1439 5.73053C77.2984 5.42781 77.3499 5.12696 77.2469 4.87438C77.0925 4.42124 76.8351 4.16867 76.4728 4.16867C76.2669 4.06838 76.164 4.11853 76.0591 4.16867M68.9895 8.2971C68.9895 6.43438 69.6606 5.07495 71.0543 5.07495C72.7054 5.07495 73.1706 6.3341 73.1706 8.24695C73.1706 11.016 72.2936 11.3688 71.0543 11.3688C69.7636 11.419 68.9895 10.9157 68.9895 8.2971Z" fill="#3A2206"/>
<path d="M5.42807 31.0702L3.92188 24.663H4.96287L5.71978 28.3142L5.96192 30.539L6.24409 28.433L7.04295 24.663H8.08393L8.90186 28.433L9.16497 30.539L9.43761 28.3142L10.2365 24.663H11.1154L9.59966 31.0702H8.57965L7.77126 27.3299L7.52912 25.2536L7.26601 27.3299L6.43666 31.0702H5.42617H5.42807ZM14.0782 31.2076C12.2689 31.2076 11.4815 29.8203 11.4815 27.8518C11.4815 25.8832 12.3108 24.5442 14.0992 24.5442C15.8876 24.5442 16.7055 25.8925 16.7055 27.8313C16.7055 29.8779 15.8971 31.2076 14.0782 31.2076ZM14.0992 30.4796C15.1192 30.4796 15.634 29.8408 15.634 27.9502V27.6159C15.634 25.9222 15.1287 25.3223 14.0878 25.3223C13.0468 25.3223 12.5415 25.9612 12.5415 27.6549V27.9799C12.5415 29.8686 13.0868 30.4796 14.0973 30.4796H14.0992ZM20.4862 28.4219L21.0925 28.8843L22.2956 31.0683H21.2145L19.8513 28.5092H18.8103V31.0683H17.7999V24.6612H19.9009C21.4071 24.6612 22.143 25.3799 22.143 26.6C22.143 27.4358 21.7598 28.264 20.4862 28.42V28.4219ZM18.8084 27.8518H19.8285C20.7284 27.8518 21.0601 27.536 21.0601 26.6706V26.5239C21.0601 25.677 20.7169 25.4319 19.8075 25.4319H18.8065V27.8536L18.8084 27.8518ZM24.164 27.9205L26.7398 24.663H27.7999L25.3747 27.6048L26.1221 28.1563L27.8704 31.0702H26.7493L24.9209 28.0003L24.3356 28.7673V31.0702H23.3156V24.663H24.3356V26.73L24.164 27.9205ZM28.7512 31.0702V24.663H30.8523C32.3471 24.663 33.0754 25.4709 33.0754 26.7096C33.0754 27.9483 32.368 28.7859 30.8523 28.7859H29.7617V31.0683H28.7512V31.0702ZM29.7617 28.0876H30.7818C31.6702 28.0876 32.0039 27.7329 32.0039 26.7876V26.6409C32.0039 25.7253 31.6607 25.43 30.7608 25.43H29.7598V28.0876H29.7617ZM34.0668 31.0702V24.663H35.0773V30.3032H37.7141V31.0702H34.0668ZM39.4834 29.7999L39.0792 31.0702H38.2002L40.3318 24.663H41.3213L43.4128 31.0702H42.3623L41.9791 29.7999H39.4834ZM41.7675 29.1202L41.0201 26.6892L40.7779 25.4189L40.4843 26.6892L39.7064 29.1202H41.7675ZM46.3756 31.2076C44.4557 31.2076 43.7694 29.7516 43.7694 27.8518C43.7694 25.9519 44.5072 24.5442 46.4061 24.5442C47.083 24.5442 47.5673 24.6816 48.0229 24.8785L47.9009 25.6566C47.2851 25.4802 46.9114 25.3706 46.3451 25.3706C45.4967 25.3706 44.8389 25.833 44.8389 27.653V27.9688C44.8389 29.8296 45.4243 30.4295 46.3642 30.4295C47.001 30.4295 47.3537 30.2716 47.9104 30.0562L48.1335 30.8046C47.6588 31.0219 47.1021 31.2076 46.3756 31.2076ZM49.0429 31.0702V24.663H52.6998V25.4598H50.0534V27.4172H52.3261V28.1545H50.0534V30.2902H52.8828V31.0683H49.0429V31.0702ZM57.6817 31.2076C56.7112 31.2076 56.1564 30.9903 55.7217 30.7545L55.9028 30.0562C56.4595 30.292 56.9133 30.4592 57.5387 30.4592C58.4081 30.4592 58.8122 30.2326 58.8122 29.4155C58.8122 28.7766 58.5701 28.55 57.5787 28.2938C56.3966 27.978 55.7694 27.6252 55.7694 26.3549C55.7694 25.183 56.4977 24.5442 57.7999 24.5442C58.6082 24.5442 59.083 24.6816 59.5082 24.8599L59.3671 25.6083C58.8409 25.4412 58.5187 25.3428 57.8323 25.3428C57.0449 25.3428 56.7112 25.5786 56.7112 26.2676C56.7112 26.9176 56.8923 27.094 57.9238 27.3596C59.0754 27.6642 59.7922 28.0579 59.7922 29.2985C59.7922 30.539 59.0544 31.2076 57.6797 31.2076H57.6817ZM63.1173 31.2076C61.308 31.2076 60.5205 29.8203 60.5205 27.8518C60.5205 25.8832 61.3499 24.5442 63.1383 24.5442C64.9266 24.5442 65.7446 25.8925 65.7446 27.8313C65.7446 29.8779 64.9362 31.2076 63.1173 31.2076ZM63.1383 30.4796C64.1583 30.4796 64.6731 29.8408 64.6731 27.9502V27.6159C64.6731 25.9222 64.1678 25.3223 63.1268 25.3223C62.0859 25.3223 61.5806 25.9612 61.5806 27.6549V27.9799C61.5806 29.8686 62.1259 30.4796 63.1364 30.4796H63.1383ZM66.837 31.0702V24.663H67.8475V30.3032H70.4843V31.0702H66.837ZM74.5873 30.1063V24.663H75.6073V31.0702H74.98L74.6979 30.4406L74.2937 30.9829C74.082 31.072 73.6473 31.2095 73.1021 31.2095C71.8189 31.2095 71.1516 30.5 71.1516 28.68V24.6649H72.1621V28.9456C72.1621 30.1565 72.4748 30.461 73.2946 30.461C73.9009 30.461 74.2651 30.2939 74.5873 30.1063ZM78.1945 25.4616H76.4977V24.6649H80.9038V25.4616H79.2069V31.072H78.1964V25.4616H78.1945ZM81.8513 31.072V24.6649H82.8618V31.072H81.8513ZM86.6102 31.2095C84.8008 31.2095 84.0134 29.8222 84.0134 27.8536C84.0134 25.885 84.8428 24.546 86.6311 24.546C88.4195 24.546 89.2374 25.8943 89.2374 27.8332C89.2374 29.8798 88.429 31.2095 86.6102 31.2095ZM86.6311 30.4815C87.6512 30.4815 88.1659 29.8426 88.1659 27.952V27.6178C88.1659 25.924 87.6607 25.3242 86.6197 25.3242C85.5787 25.3242 85.0735 25.963 85.0735 27.6568V27.9818C85.0735 29.8705 85.6188 30.4815 86.6292 30.4815H86.6311ZM90.3394 31.072V24.6649H91.451L93.4815 28.4925L94.1793 30.3533L93.9371 28.1879V24.6649H94.837V31.072H93.7655L91.634 27.0866L91.0067 25.3242L91.2298 27.3708V31.072H90.3413H90.3394ZM97.8876 31.2095C96.9171 31.2095 96.3623 30.9922 95.9276 30.7563L96.1087 30.058C96.6655 30.2939 97.1192 30.461 97.7446 30.461C98.614 30.461 99.0182 30.2345 99.0182 29.4173C99.0182 28.7785 98.776 28.5519 97.7865 28.2956C96.6044 27.9799 95.9772 27.627 95.9772 26.3568C95.9772 25.1849 96.7055 24.546 98.0077 24.546C98.8161 24.546 99.2908 24.6835 99.716 24.8618L99.5749 25.6102C99.0487 25.443 98.7265 25.3446 98.0401 25.3446C97.2527 25.3446 96.919 25.5805 96.919 26.2695C96.919 26.9195 97.1002 27.0959 98.1316 27.3615C99.2832 27.666 100 28.0598 100 29.3003C100 30.5409 99.2622 31.2095 97.8876 31.2095Z" fill="#3A2206"/>
</svg>
