<svg width="40" height="33" viewBox="0 0 40 33" fill="none" xmlns="http://www.w3.org/2000/svg">
<path d="M25.9999 9.914L21.7069 14.207C21.3159 14.598 20.6839 14.598 20.2929 14.207L17.9999 11.915L12.7069 17.207L11.2929 15.793L17.2929 9.793C17.6839 9.403 18.3159 9.403 18.7069 9.793L20.9999 12.086L24.5859 8.5H21.9999V6.5H27.9999V12.5H25.9999V9.914Z" fill="#222529"/>
<path fill-rule="evenodd" clip-rule="evenodd" d="M28.9999 18.5V16.5C28.9999 15.948 28.5519 15.5 27.9999 15.5H21.9999C21.4479 15.5 20.9999 15.948 20.9999 16.5V19.5C20.9999 20.053 21.4479 20.5 21.9999 20.5V21.5C21.4479 21.5 20.9999 21.948 20.9999 22.5V25.5C20.9999 26.053 21.4479 26.5 21.9999 26.5H27.9999C28.5519 26.5 28.9999 26.053 28.9999 25.5V23.5C29.5519 23.5 29.9999 23.053 29.9999 22.5V19.5C29.9999 18.948 29.5519 18.5 28.9999 18.5ZM26.9999 24.5H22.9999V23.5H26.9999V24.5ZM23.9999 20.5H27.9999V21.5H23.9999V20.5ZM22.9999 17.5H26.9999V18.5H22.9999V17.5Z" fill="#222529"/>
<path fill-rule="evenodd" clip-rule="evenodd" d="M17.9999 21.5V19.5C17.9999 18.948 17.5519 18.5 16.9999 18.5H10.9999C10.4479 18.5 9.99992 18.948 9.99992 19.5V22.5C9.99992 23.053 10.4479 23.5 10.9999 23.5V25.5C10.9999 26.053 11.4479 26.5 11.9999 26.5H17.9999C18.5519 26.5 18.9999 26.053 18.9999 25.5V22.5C18.9999 21.948 18.5519 21.5 17.9999 21.5ZM16.9999 24.5H12.9999V23.5H16.9999V24.5ZM11.9999 20.5H15.9999V21.5H11.9999V20.5Z" fill="#222529"/>
</svg>