<svg width="40" height="33" viewBox="0 0 40 33" fill="none" xmlns="http://www.w3.org/2000/svg">
<path d="M25.9818 6.5H14.0189C13.4837 6.5006 12.9707 6.71347 12.5923 7.09189C12.2138 7.47031 12.001 7.98338 12.0004 8.51855V24.4814C12.001 25.0166 12.2138 25.5297 12.5923 25.9081C12.9707 26.2865 13.4837 26.4994 14.0189 26.5H25.9818C26.517 26.4994 27.0301 26.2865 27.4085 25.9081C27.7869 25.5297 27.9998 25.0166 28.0004 24.4814V8.51855C27.9998 7.98338 27.7869 7.47031 27.4085 7.09189C27.0301 6.71347 26.517 6.5006 25.9818 6.5ZM25.9818 24.5L14.0004 24.4814L14.0189 8.5H25.9818C25.9867 8.50008 25.9914 8.50206 25.9948 8.50552C25.9983 8.50898 26.0003 8.51365 26.0004 8.51855L25.9818 24.5Z" fill="black"/>
<path d="M18.0004 10H16.0004V17.5H18.0004V10Z" fill="black"/>
<path d="M21.0004 14H19.0004V17.5H21.0004V14Z" fill="black"/>
<path d="M24.0004 11.9443H22.0004V17.5H24.0004V11.9443Z" fill="black"/>
</svg>