<svg width="44" height="44" viewBox="0 0 44 44" fill="none" xmlns="http://www.w3.org/2000/svg">
<rect width="44" height="44" rx="6" fill="#004FE8" fill-opacity="0.08"/>
<path fill-rule="evenodd" clip-rule="evenodd" d="M30.1618 23.4105C30.562 23.5176 30.7995 23.9288 30.6924 24.3289C30.2837 25.8552 29.4805 27.2469 28.3635 28.3643C27.2464 29.4817 25.8549 30.2854 24.3288 30.6945C22.8027 31.1035 21.1957 31.1037 19.6696 30.6948C18.1434 30.2859 16.7517 29.4825 15.6345 28.3653L13.7349 26.4638V29.6439C13.7349 30.0582 13.3991 30.394 12.9849 30.394C12.5706 30.394 12.2349 30.0582 12.2349 29.6439V24.652C12.2349 24.2377 12.5706 23.902 12.9849 23.902H17.9769C18.3911 23.902 18.7269 24.2377 18.7269 24.652C18.7269 25.0662 18.3911 25.402 17.9769 25.402H14.7943L16.6952 27.3046C17.6262 28.2355 18.786 28.9052 20.0577 29.2459C21.3295 29.5866 22.6686 29.5865 23.9404 29.2456C25.2122 28.9047 26.3718 28.235 27.3027 27.3038C28.2335 26.3727 28.9029 25.2129 29.2434 23.941C29.3505 23.5409 29.7617 23.3033 30.1618 23.4105Z" fill="#004FE8"/>
<path fill-rule="evenodd" clip-rule="evenodd" d="M12.7913 20.591C12.3912 20.4839 12.1537 20.0727 12.2608 19.6725C12.6694 18.1463 13.4726 16.7545 14.5896 15.6371C15.7067 14.5197 17.0982 13.7161 18.6243 13.307C20.1505 12.8979 21.7574 12.8978 23.2836 13.3067C24.8097 13.7155 26.2014 14.519 27.3186 15.6362L29.2183 17.5376L29.2183 14.3575C29.2183 13.9433 29.554 13.6075 29.9683 13.6075C30.3825 13.6075 30.7183 13.9433 30.7183 14.3575L30.7183 19.3495C30.7183 19.7637 30.3825 20.0995 29.9683 20.0995L24.9763 20.0995C24.562 20.0995 24.2263 19.7637 24.2263 19.3495C24.2263 18.9353 24.562 18.5995 24.9763 18.5995L28.1588 18.5995L26.2579 16.6968C25.327 15.7659 24.1671 15.0963 22.8954 14.7556C21.6236 14.4149 20.2845 14.415 19.0127 14.7559C17.741 15.0968 16.5814 15.7665 15.6505 16.6976C14.7196 17.6288 14.0503 18.7886 13.7097 20.0605C13.6026 20.4606 13.1914 20.6981 12.7913 20.591Z" fill="#004FE8"/>
</svg>
