<svg width="40" height="33" viewBox="0 0 40 33" fill="none" xmlns="http://www.w3.org/2000/svg">
<path fill-rule="evenodd" clip-rule="evenodd" d="M20 9C19.4033 9 18.831 9.23705 18.409 9.65901C17.9871 10.081 17.75 10.6533 17.75 11.25C17.75 11.8467 17.9871 12.419 18.409 12.841C18.831 13.2629 19.4033 13.5 20 13.5C20.5967 13.5 21.169 13.2629 21.591 12.841C22.0129 12.419 22.25 11.8467 22.25 11.25C22.25 10.6533 22.0129 10.081 21.591 9.65901C21.169 9.23705 20.5967 9 20 9ZM17.3483 8.59835C18.0516 7.89509 19.0054 7.5 20 7.5C20.9946 7.5 21.9484 7.89509 22.6517 8.59835C23.3549 9.30161 23.75 10.2554 23.75 11.25C23.75 12.2446 23.3549 13.1984 22.6517 13.9017C21.9484 14.6049 20.9946 15 20 15C19.0054 15 18.0516 14.6049 17.3483 13.9017C16.6451 13.1984 16.25 12.2446 16.25 11.25C16.25 10.2554 16.6451 9.30161 17.3483 8.59835ZM13.25 12.75C12.8522 12.75 12.4706 12.908 12.1893 13.1893C11.908 13.4706 11.75 13.8522 11.75 14.25C11.75 14.447 11.7888 14.642 11.8642 14.824C11.9396 15.006 12.0501 15.1714 12.1893 15.3107C12.3286 15.4499 12.494 15.5604 12.676 15.6358C12.858 15.7112 13.053 15.75 13.25 15.75C13.447 15.75 13.642 15.7112 13.824 15.6358C14.006 15.5604 14.1714 15.4499 14.3107 15.3107C14.4499 15.1714 14.5604 15.006 14.6358 14.824C14.7112 14.642 14.75 14.447 14.75 14.25C14.75 13.8522 14.592 13.4706 14.3107 13.1893C14.0294 12.908 13.6478 12.75 13.25 12.75ZM11.1287 12.1287C11.6913 11.5661 12.4544 11.25 13.25 11.25C14.0456 11.25 14.8087 11.5661 15.3713 12.1287C15.9339 12.6913 16.25 13.4544 16.25 14.25C16.25 14.644 16.1724 15.0341 16.0216 15.3981C15.8709 15.762 15.6499 16.0927 15.3713 16.3713C15.0927 16.6499 14.762 16.8709 14.3981 17.0216C14.0341 17.1724 13.644 17.25 13.25 17.25C12.856 17.25 12.4659 17.1724 12.1019 17.0216C11.738 16.8709 11.4073 16.6499 11.1287 16.3713C10.8501 16.0927 10.6291 15.762 10.4784 15.3981C10.3276 15.0341 10.25 14.644 10.25 14.25C10.25 13.4544 10.5661 12.6913 11.1287 12.1287ZM26.75 12.75C26.3522 12.75 25.9706 12.908 25.6893 13.1893C25.408 13.4706 25.25 13.8522 25.25 14.25C25.25 14.447 25.2888 14.642 25.3642 14.824C25.4396 15.006 25.5501 15.1714 25.6893 15.3107C25.8286 15.4499 25.994 15.5604 26.176 15.6358C26.358 15.7112 26.553 15.75 26.75 15.75C26.947 15.75 27.142 15.7112 27.324 15.6358C27.506 15.5604 27.6714 15.4499 27.8107 15.3107C27.9499 15.1714 28.0604 15.006 28.1358 14.824C28.2112 14.642 28.25 14.447 28.25 14.25C28.25 13.8522 28.092 13.4706 27.8107 13.1893C27.5294 12.908 27.1478 12.75 26.75 12.75ZM24.6287 12.1287C25.1913 11.5661 25.9544 11.25 26.75 11.25C27.5457 11.25 28.3087 11.5661 28.8713 12.1287C29.4339 12.6913 29.75 13.4544 29.75 14.25C29.75 14.644 29.6724 15.0341 29.5216 15.3981C29.3709 15.762 29.1499 16.0927 28.8713 16.3713C28.5927 16.6499 28.262 16.8709 27.8981 17.0216C27.5341 17.1724 27.144 17.25 26.75 17.25C26.356 17.25 25.9659 17.1724 25.6019 17.0216C25.238 16.8709 24.9073 16.6499 24.6287 16.3713C24.3501 16.0927 24.1291 15.762 23.9784 15.3981C23.8276 15.0341 23.75 14.644 23.75 14.25C23.75 13.4544 24.0661 12.6913 24.6287 12.1287Z" fill="#222529"/>
<path fill-rule="evenodd" clip-rule="evenodd" d="M14.8391 23.061C14.8543 23.0708 14.8699 23.0808 14.8859 23.091C15.1758 23.2755 15.5967 23.5233 16.1131 23.7713C17.1546 24.2714 18.5393 24.75 20 24.75C21.4607 24.75 22.8454 24.2714 23.8869 23.7713C24.4033 23.5233 24.8242 23.2755 25.1141 23.091C25.1301 23.0808 25.1458 23.0708 25.1609 23.061C25.1335 22.9523 25.0995 22.8272 25.0581 22.6893C24.9039 22.1755 24.651 21.4979 24.2571 20.8271C23.4736 19.493 22.1826 18.25 20 18.25C17.8174 18.25 16.5264 19.493 15.7429 20.8271C15.349 21.4979 15.0961 22.1755 14.9419 22.6893C14.9005 22.8272 14.8665 22.9523 14.8391 23.061ZM26 23.3947C26.741 23.2787 26.7409 23.2784 26.7409 23.278L26.7404 23.2752L26.7395 23.2695L26.7365 23.2518C26.734 23.2372 26.7305 23.2171 26.7258 23.1919C26.7165 23.1415 26.7026 23.0704 26.6832 22.9816C26.6445 22.8043 26.584 22.5552 26.4948 22.2581C26.3173 21.6666 26.0221 20.8705 25.5506 20.0676C24.6033 18.4544 22.8943 16.75 20 16.75C17.1057 16.75 15.3967 18.4544 14.4494 20.0676C13.9779 20.8705 13.6827 21.6666 13.5052 22.2581C13.416 22.5552 13.3555 22.8043 13.3168 22.9816C13.2975 23.0704 13.2835 23.1415 13.2742 23.1919C13.2695 23.2171 13.266 23.2372 13.2635 23.2518L13.2605 23.2695L13.2596 23.2752L13.2593 23.2772C13.2592 23.2776 13.259 23.2787 14 23.3947L13.259 23.2787L13.1898 23.7209L13.5461 23.9918L14 23.3947C13.5461 23.9918 13.5459 23.9917 13.5461 23.9918L13.5479 23.9932L13.5508 23.9953L13.5595 24.0019L13.589 24.0236C13.6139 24.0419 13.6492 24.0674 13.6945 24.0991C13.7849 24.1626 13.9151 24.2511 14.0805 24.3564C14.4107 24.5666 14.884 24.8451 15.4638 25.1235C16.6146 25.676 18.2299 26.25 20 26.25C21.7701 26.25 23.3854 25.676 24.5362 25.1235C25.116 24.8451 25.5893 24.5666 25.9195 24.3564C26.0849 24.2511 26.2151 24.1626 26.3055 24.0991C26.3508 24.0674 26.3861 24.0419 26.411 24.0236L26.4405 24.0019L26.4492 23.9953L26.4521 23.9932L26.4531 23.9924C26.4533 23.9922 26.4539 23.9918 26 23.3947ZM26 23.3947L26.4531 23.9924L26.8102 23.7209L26.7409 23.278L26 23.3947Z" fill="#222529"/>
<path d="M26.9997 18.5C28.6246 18.5 29.5837 19.4675 30.0983 20.3438C30.3535 20.7783 30.5116 21.2064 30.6061 21.5215C30.6538 21.6804 30.6866 21.8144 30.7077 21.9111C30.7182 21.9594 30.7268 21.9985 30.7321 22.0273L30.7399 22.0742L30.7409 22.0781V22.0811L30.8102 22.5234L30.4528 22.7949V22.7959L30.4499 22.7969L30.445 22.8018L30.4274 22.8145C30.4131 22.825 30.3926 22.8391 30.3679 22.8564C30.3184 22.8911 30.2486 22.9383 30.1608 22.9941C29.9857 23.1056 29.7361 23.2526 29.4304 23.3994C28.8277 23.6888 27.9621 24 26.9997 24C26.8418 24 26.6868 23.9889 26.5349 23.9736L25.9372 22.3281C26.2711 22.43 26.6322 22.5 26.9997 22.5C27.6526 22.5 28.2875 22.2847 28.7809 22.0479C28.9156 21.9832 29.0364 21.9178 29.1403 21.8584C29.068 21.6364 28.9603 21.3673 28.8054 21.1035C28.4546 20.5062 27.9131 20 26.9997 20C26.2378 20.0001 25.7368 20.3538 25.3874 20.8174L24.9997 19.75L24.8513 19.2295C25.3832 18.806 26.0861 18.5001 26.9997 18.5Z" fill="#222529"/>
<path d="M12.8516 18.5C11.2266 18.5 10.2676 19.4675 9.75293 20.3438C9.49778 20.7783 9.3397 21.2064 9.24512 21.5215C9.19743 21.6804 9.16465 21.8144 9.14355 21.9111C9.13302 21.9594 9.12448 21.9985 9.11914 22.0273L9.11133 22.0742L9.11035 22.0781V22.0811L9.04102 22.5234L9.39844 22.7949V22.7959L9.40137 22.7969L9.40625 22.8018L9.42383 22.8145C9.4382 22.825 9.45867 22.8391 9.4834 22.8564C9.53281 22.8911 9.6027 22.9383 9.69043 22.9941C9.8656 23.1056 10.1152 23.2526 10.4209 23.3994C11.0236 23.6888 11.8892 24 12.8516 24C13.0095 24 13.1645 23.9889 13.3164 23.9736L13.9141 22.3281C13.5801 22.43 13.219 22.5 12.8516 22.5C12.1987 22.5 11.5637 22.2847 11.0703 22.0479C10.9356 21.9832 10.8148 21.9178 10.7109 21.8584C10.7833 21.6364 10.891 21.3673 11.0459 21.1035C11.3967 20.5062 11.9382 20 12.8516 20C13.6135 20.0001 14.1145 20.3538 14.4639 20.8174L14.8516 19.75L15 19.2295C14.4681 18.806 13.7651 18.5001 12.8516 18.5Z" fill="#222529"/>
</svg>