<svg width="45" height="44" viewBox="0 0 45 44" fill="none" xmlns="http://www.w3.org/2000/svg">
<rect x="0.5" width="44" height="44" rx="6" fill="#004FE8" fill-opacity="0.08"/>
<path fill-rule="evenodd" clip-rule="evenodd" d="M18.5 27C23.211 27 26.5 29.467 26.5 33V34H10.5V33C10.5 29.467 13.79 27 18.5 27ZM18.5 29C15.4919 29 13.2569 30.192 12.6589 32H24.342C23.744 30.192 21.508 29 18.5 29ZM18.5003 18V20C17.3973 20 16.5003 20.896 16.5003 22C16.5003 23.0529 17.3176 23.918 18.3512 23.9945L18.5003 24H21.9433C21.2503 25.189 19.9743 26 18.5003 26C16.2943 26 14.5003 24.206 14.5003 22C14.5003 19.8608 16.1872 18.1091 18.3009 18.0049L18.5003 18ZM27.5003 10C31.3603 10 34.5003 13.14 34.5003 17C34.5003 20.86 31.3603 24 27.5003 24C23.6403 24 20.5003 20.86 20.5003 17C20.5003 13.14 23.6403 10 27.5003 10ZM27.5003 12C24.7433 12 22.5003 14.243 22.5003 17C22.5003 19.757 24.7433 22 27.5003 22C30.2573 22 32.5003 19.757 32.5003 17C32.5003 14.243 30.2573 12 27.5003 12ZM28.5003 17V21H26.5003V17H28.5003ZM27.5003 14C28.0523 14 28.5003 14.448 28.5003 15C28.5003 15.553 28.0523 16 27.5003 16C26.9483 16 26.5003 15.553 26.5003 15C26.5003 14.448 26.9483 14 27.5003 14Z" fill="#004FE8"/>
</svg>
