<svg width="44" height="44" viewBox="0 0 44 44" fill="none" xmlns="http://www.w3.org/2000/svg">
<rect width="44" height="44" rx="6" fill="#004FE8" fill-opacity="0.08"/>
<path fill-rule="evenodd" clip-rule="evenodd" d="M13.75 13.375C13.75 12.3398 14.5898 11.5 15.625 11.5H20.5C23.0859 11.5 25.5658 12.5272 27.3943 14.3557C29.2228 16.1842 30.25 18.6641 30.25 21.25V30.625C30.25 31.6602 29.4102 32.5 28.375 32.5H15.625C14.5898 32.5 13.75 31.6602 13.75 30.625V13.375ZM28.0797 17.9925C27.6702 17.0398 27.081 16.1638 26.3336 15.4164C25.5862 14.669 24.7102 14.0798 23.7575 13.6703C24.0779 14.2658 24.25 14.9365 24.25 15.625V17.125C24.25 17.3318 24.4182 17.5 24.625 17.5H26.125C26.8135 17.5 27.4842 17.6721 28.0797 17.9925ZM20.125 13H15.625C15.4182 13 15.25 13.1682 15.25 13.375V30.625C15.25 30.8318 15.4182 31 15.625 31H28.375C28.5818 31 28.75 30.8318 28.75 30.625V21.625C28.75 20.9288 28.4734 20.2611 27.9812 19.7688C27.4889 19.2766 26.8212 19 26.125 19H24.625C23.5898 19 22.75 18.1602 22.75 17.125V15.625C22.75 14.9288 22.4734 14.2611 21.9812 13.7688C21.4889 13.2766 20.8212 13 20.125 13ZM25.4359 21.3897C25.773 21.6305 25.8511 22.0989 25.6103 22.4359L21.8603 27.6859C21.7322 27.8653 21.5316 27.9793 21.3119 27.9974C21.0921 28.0156 20.8756 27.9362 20.7197 27.7803L18.4697 25.5303C18.1768 25.2374 18.1768 24.7626 18.4697 24.4697C18.7626 24.1768 19.2374 24.1768 19.5303 24.4697L21.1543 26.0936L24.3897 21.5641C24.6305 21.227 25.0989 21.1489 25.4359 21.3897Z" fill="#004FE8"/>
</svg>
